<?xml version="1.0" standalone="no"?>
<!DOCTYPE svg PUBLIC "-//W3C//DTD SVG 20010904//EN"
 "http://www.w3.org/TR/2001/REC-SVG-20010904/DTD/svg10.dtd">
<svg version="1.0" xmlns="http://www.w3.org/2000/svg"
 width="480.000000pt" height="480.000000pt" viewBox="0 0 480.000000 480.000000"
 preserveAspectRatio="xMidYMid meet">
<metadata>
Created by potrace 1.14, written by Peter Selinger 2001-2017
</metadata>
<g transform="translate(0.000000,480.000000) scale(0.100000,-0.100000)"
fill="#000000" stroke="none">
<path d="M3769 3869 c-90 -95 -195 -205 -234 -244 -66 -68 -394 -408 -534
-554 -55 -57 -339 -352 -541 -561 -36 -37 -155 -161 -265 -275 -110 -114 -263
-273 -340 -351 l-140 -144 -95 92 c-102 98 -251 242 -559 538 -106 102 -196
186 -200 188 -4 1 -79 -73 -167 -164 -87 -92 -180 -189 -205 -215 l-46 -48
201 -193 c110 -106 247 -238 304 -293 168 -160 217 -208 448 -431 121 -116
246 -237 279 -268 l60 -57 104 108 c218 226 322 334 501 522 102 106 221 231
265 276 44 46 162 168 261 271 100 104 212 221 249 259 37 39 160 166 274 284
113 118 265 275 338 350 72 75 160 166 195 202 34 37 146 153 248 258 102 106
186 196 188 200 2 5 -3 15 -11 22 -133 128 -287 277 -343 331 l-70 69 -165
-172z"/>
</g>
</svg>
